<svg width="40" height="22">
    <g fill="#77b900">
        <path d="M 12.406163,6.5667982 V 4.5791291 c 0.19257,-0.013645 0.387407,-0.024255 0.586045,-0.030323 5.435835,-0.1705661 9.00134,4.6704792 9.00134,4.6704792 0,0 -3.851326,5.3489577 -7.980893,5.3489577 -0.59438,0 -1.127344,-0.09628 -1.606492,-0.25699 V 8.2853416 c 2.115957,0.2554734 2.541273,1.1901762 3.813423,3.3105044 l 2.829369,-2.3856539 c 0,0 -2.065168,-2.7085894 -5.546524,-2.7085894 -0.37907,0 -0.741454,0.02653 -1.096268,0.065195 m 0,-6.5649061 v 2.9686141 c 0.194846,-0.015921 0.390441,-0.028048 0.586045,-0.034873 7.559367,-0.2547149 12.483462,6.1979951 12.483462,6.1979951 0,0 -5.656453,6.8779822 -11.54944,6.8779822 -0.539797,0 -1.04547,-0.05004 -1.520067,-0.134176 v 1.835291 c 0.405604,0.05154 0.827127,0.08186 1.26609,0.08186 5.483598,0 9.449404,-2.800316 13.290117,-6.114604 0.636076,0.51018 3.242549,1.749632 3.779314,2.293169 -3.651944,3.056547 -12.161258,5.520275 -16.985275,5.520275 -0.464744,0 -0.912043,-0.02805 -1.350246,-0.07049 v 2.578958 H 33.248832 V 0.0018921 Z m 0,14.3093624 v 1.56618 C 7.3334779,14.973813 5.9256246,9.7014187 5.9256246,9.7014187 c 0,0 2.4358862,-2.6979709 6.4805384,-3.1346205 v 1.7185434 c -0.0038,0 -0.0053,-7.656e-4 -0.0084,-7.656e-4 -2.122025,-0.2547067 -3.7808224,1.727646 -3.7808224,1.727646 0,0 0.9294724,3.33855 3.7891574,4.299025 M 3.3972387,9.4732424 c 0,0 3.0060088,-4.4354764 9.0089243,-4.8941133 V 2.9705062 C 5.7573123,3.5034326 3e-5,9.1336279 3e-5,9.1336279 c 0,0 3.2607459,9.4266161 12.406133,10.2893051 V 17.712725 C 5.6951446,16.868232 3.3972387,9.4732424 3.3972387,9.4732424"/>
    </g>
</svg>