<svg xmlns="http://www.w3.org/2000/svg" fill="none" viewBox="0 0 32 32"><g clip-path="url(#a)"><path fill="#1877F2" d="M32 16a16 16 0 1 0-18.5 15.8V20.63H9.44V16h4.06v-3.53c0-4 2.39-6.22 6.04-6.22a25 25 0 0 1 3.59.31v3.94H21.1c-1.99 0-2.61 1.23-2.61 2.5v3h4.44l-.71 4.63H18.5V31.8A16 16 0 0 0 32 16Z"/><path fill="#fff" d="m22.23 20.63.7-4.63H18.5v-3c0-1.27.62-2.5 2.6-2.5h2.02V6.56s-1.83-.31-3.58-.31c-3.65 0-6.04 2.21-6.04 6.22V16H9.44v4.63h4.06V31.8c1.66.25 3.34.25 5 0V20.63h3.73Z"/></g><defs><clipPath id="a"><path fill="#fff" d="M0 0h32v32H0z"/></clipPath></defs></svg>