<?xml version="1.0" standalone="no"?>
<!DOCTYPE svg PUBLIC "-//W3C//DTD SVG 20010904//EN"
 "http://www.w3.org/TR/2001/REC-SVG-20010904/DTD/svg10.dtd">
<svg version="1.0" xmlns="http://www.w3.org/2000/svg"
 width="4254.000000pt" height="649.000000pt" viewBox="0 0 4254.000000 649.000000"
 preserveAspectRatio="xMidYMid meet">

<g transform="translate(0.000000,649.000000) scale(0.100000,-0.100000)"
fill="#0069b4" stroke="none">
<path d="M2109 5996 c-235 -63 -387 -362 -583 -1151 -97 -388 -197 -858 -401
-1883 -58 -294 -115 -564 -127 -600 -39 -126 -85 -198 -157 -240 -43 -25 -56
-27 -195 -32 l-150 -5 -23 -130 c-12 -71 -23 -141 -23 -154 l0 -24 182 6 c270
9 350 37 483 171 87 87 129 156 171 279 14 39 88 385 165 767 297 1477 436
2063 574 2435 58 156 125 259 156 240 22 -14 79 -155 114 -280 102 -374 182
-862 370 -2260 141 -1048 216 -1536 260 -1692 52 -183 132 -305 240 -367 43
-25 61 -29 125 -30 113 -1 139 11 222 97 57 60 115 169 203 387 36 91 77 184
91 208 l25 42 5784 0 5785 0 5 22 c11 54 45 254 45 270 0 17 -241 18 -5844 18
-4436 0 -5851 -3 -5877 -12 -60 -20 -109 -60 -154 -122 -56 -79 -82 -132 -155
-316 -59 -148 -116 -270 -125 -270 -12 0 -48 88 -70 172 -45 167 -127 704
-270 1773 -253 1895 -362 2392 -570 2602 -86 86 -166 109 -276 79z"/>
<path d="M19270 3020 l0 -2470 135 0 135 0 0 2470 0 2470 -135 0 -135 0 0
-2470z"/>
<path d="M8582 4633 c-6 -27 -20 -98 -32 -159 l-22 -111 -147 -6 c-169 -7
-277 -26 -399 -68 -277 -97 -515 -320 -612 -571 -51 -131 -62 -187 -67 -323
-8 -219 33 -333 166 -466 135 -135 283 -187 559 -196 117 -4 162 -9 162 -18 0
-6 -13 -79 -30 -160 -16 -81 -30 -152 -30 -157 0 -4 181 -7 402 -6 l402 3 23
115 c13 63 28 139 34 168 l10 52 132 0 c355 0 624 103 824 314 120 126 194
260 240 435 21 79 26 121 27 236 2 218 -37 329 -153 446 -134 134 -342 198
-643 199 -68 0 -88 3 -88 14 0 12 42 227 55 284 l5 22 -404 0 -404 0 -10 -47z
m-122 -766 c0 -8 -25 -135 -55 -283 -30 -148 -60 -293 -66 -321 l-10 -53 -47
0 c-87 1 -160 52 -199 139 -24 53 -21 180 5 253 43 121 132 220 229 258 57 23
143 27 143 7z m868 -2 c51 -22 81 -52 108 -110 58 -123 4 -336 -115 -455 -55
-55 -137 -90 -210 -90 l-49 0 64 313 c35 171 66 322 69 335 5 19 12 22 51 22
24 0 61 -7 82 -15z"/>
<path d="M35892 4496 c5 -21 13 -47 18 -56 19 -35 71 -69 124 -81 126 -28 246
33 263 134 l6 37 -48 0 c-39 0 -52 -5 -75 -30 -25 -27 -35 -30 -85 -30 -50 0
-60 4 -84 29 -21 23 -37 30 -77 32 l-51 4 9 -39z"/>
<path d="M4475 4518 c-4 -13 -96 -463 -301 -1483 -63 -313 -117 -578 -120
-587 -5 -17 16 -18 339 -18 l344 0 22 103 c11 56 86 426 167 822 80 396 149
724 154 729 14 14 18 -53 45 -754 14 -371 28 -726 31 -787 l7 -113 336 0 336
0 115 257 c359 798 629 1388 638 1391 8 2 -159 -844 -297 -1510 l-29 -138 362
0 361 0 37 183 c20 100 114 562 208 1027 94 465 174 855 177 868 l5 22 -598
-2 -598 -3 -233 -540 c-259 -602 -262 -609 -268 -603 -2 2 -11 211 -20 464 -8
252 -18 510 -21 572 l-6 112 -594 0 c-467 0 -596 -3 -599 -12z"/>
<path d="M10400 4523 c0 -5 -27 -140 -60 -301 -33 -161 -60 -297 -60 -302 0
-6 136 -10 350 -10 297 0 350 -2 350 -14 0 -8 -65 -338 -145 -733 -80 -395
-145 -721 -145 -726 0 -4 181 -6 402 -5 l402 3 147 730 c82 402 148 733 149
738 0 4 160 7 355 7 l355 0 5 23 c3 12 32 151 64 310 l59 287 -1114 0 c-613 0
-1114 -3 -1114 -7z"/>
<path d="M12805 4518 c-3 -7 -41 -193 -85 -413 -45 -220 -137 -679 -206 -1020
-68 -341 -127 -628 -130 -637 -5 -17 22 -18 468 -18 l473 0 230 353 c453 695
545 832 545 815 0 -9 -52 -272 -115 -583 -63 -311 -115 -570 -115 -575 0 -7
144 -9 402 -8 l402 3 102 510 c57 281 152 752 212 1048 l109 537 -471 0 -472
0 -384 -595 c-211 -327 -388 -595 -393 -595 -4 0 -6 8 -3 18 6 21 236 1155
236 1165 0 4 -180 7 -400 7 -311 0 -402 -3 -405 -12z"/>
<path d="M22590 4070 l0 -450 365 0 365 0 0 -95 0 -95 110 0 110 0 0 200 0
200 -50 0 -50 0 0 345 0 345 -135 0 -135 0 -2 -337 -3 -338 -150 0 -150 0 -3
338 -2 337 -135 0 -135 0 0 -450z"/>
<path d="M37040 4070 l0 -450 140 0 140 0 2 183 3 182 148 3 147 3 0 -186 0
-185 140 0 140 0 0 450 0 450 -140 0 -140 0 0 -160 0 -161 -147 3 -148 3 -3
158 -3 157 -139 0 -140 0 0 -450z"/>
<path d="M38020 4410 l0 -110 145 0 145 0 0 -340 0 -340 135 0 135 0 0 340 0
340 140 0 140 0 0 110 0 110 -420 0 -420 0 0 -110z"/>
<path d="M38990 4070 l0 -450 130 0 129 0 163 241 163 240 3 -240 2 -241 130
0 130 0 0 450 0 450 -127 0 -128 0 -165 -243 -165 -244 -3 244 -2 243 -130 0
-130 0 0 -450z"/>
<path d="M23833 4262 c-111 -40 -181 -114 -209 -224 -44 -170 40 -353 185
-403 64 -23 212 -30 297 -16 38 7 91 24 118 39 64 35 144 132 108 132 -5 0
-57 5 -115 11 l-107 11 -30 -26 c-51 -42 -120 -46 -164 -7 -24 21 -46 65 -46
91 0 20 5 20 246 20 l247 0 -5 83 c-7 101 -23 142 -83 206 -70 75 -124 94
-270 98 -97 3 -130 0 -172 -15z m226 -147 c30 -26 57 -87 46 -105 -4 -6 -54
-10 -122 -10 l-116 0 6 38 c4 25 18 48 42 70 45 42 99 44 144 7z"/>
<path d="M26345 4261 c-22 -10 -51 -30 -64 -45 -33 -35 -41 -33 -41 14 l0 40
-115 0 -115 0 0 -445 0 -445 125 0 125 0 0 150 0 149 36 -24 c115 -78 286 -51
365 57 41 57 59 127 59 228 0 211 -102 340 -269 340 -43 0 -80 -7 -106 -19z
m90 -192 c27 -26 30 -36 33 -104 5 -85 -7 -125 -46 -155 -75 -60 -162 14 -162
137 0 73 24 122 70 145 41 21 65 16 105 -23z"/>
<path d="M27780 4270 c-67 -7 -116 -26 -141 -56 -8 -9 -32 -51 -54 -93 -30
-55 -47 -77 -63 -79 -22 -3 -22 -1 -22 112 l0 116 -125 0 -125 0 0 -325 0
-325 125 0 124 0 3 123 3 122 24 -3 c37 -4 51 -21 111 -136 l55 -106 142 0
142 0 -70 118 c-93 153 -115 181 -156 199 -32 13 -34 16 -21 31 8 9 27 38 42
64 32 58 50 68 115 68 l51 0 0 90 0 90 -47 -1 c-27 -1 -77 -5 -113 -9z"/>
<path d="M28263 4266 c-60 -19 -106 -50 -157 -108 -54 -59 -76 -123 -76 -214
0 -213 161 -346 400 -331 150 9 247 62 305 168 25 46 30 68 33 145 5 111 -12
171 -65 233 -73 86 -163 121 -307 120 -50 0 -110 -6 -133 -13z m202 -170 c36
-24 55 -77 55 -153 0 -87 -21 -131 -74 -157 -36 -17 -43 -18 -80 -5 -54 19
-86 78 -86 160 0 66 12 104 43 138 40 43 93 49 142 17z"/>
<path d="M30985 4266 c-62 -20 -97 -41 -142 -88 -65 -67 -87 -125 -87 -234 -1
-82 2 -96 32 -157 59 -119 136 -164 298 -174 192 -12 317 36 389 150 14 22 15
27 3 27 -8 0 -63 5 -121 11 l-107 11 -30 -26 c-51 -42 -120 -46 -164 -7 -24
21 -46 65 -46 91 0 20 5 20 249 20 l250 0 -5 58 c-16 180 -84 274 -228 317
-61 18 -235 19 -291 1z m210 -148 c15 -12 34 -36 41 -54 27 -64 27 -64 -106
-64 -114 0 -120 1 -120 20 0 30 26 75 56 99 35 28 93 28 129 -1z"/>
<path d="M32453 4262 c-111 -40 -181 -114 -209 -224 -44 -170 40 -352 184
-403 65 -23 213 -30 298 -16 38 7 91 24 118 39 64 35 144 132 108 132 -5 0
-57 5 -115 11 l-107 11 -30 -26 c-51 -42 -120 -46 -164 -7 -24 21 -46 65 -46
91 0 20 5 20 246 20 l247 0 -5 83 c-7 101 -23 142 -83 206 -70 75 -124 94
-270 98 -97 3 -130 0 -172 -15z m226 -147 c30 -26 57 -87 46 -105 -4 -6 -54
-10 -122 -10 l-116 0 6 38 c4 25 18 48 42 70 45 42 99 44 144 7z"/>
<path d="M24480 3945 l0 -325 125 0 125 0 0 125 0 125 115 0 115 0 0 -125 0
-125 125 0 125 0 0 325 0 325 -125 0 -125 0 0 -110 0 -110 -115 0 -115 0 0
110 0 110 -125 0 -125 0 0 -325z"/>
<path d="M25310 4180 l0 -90 90 0 90 0 0 -235 0 -235 125 0 125 0 0 235 0 235
90 0 90 0 0 90 0 90 -305 0 -305 0 0 -90z"/>
<path d="M28900 3945 l0 -325 105 0 105 0 2 196 3 196 80 -196 80 -196 75 0
75 0 69 183 c38 100 72 186 77 192 5 5 9 -72 9 -183 l0 -192 105 0 105 0 0
325 0 325 -149 0 -150 0 -39 -102 c-22 -57 -52 -138 -68 -180 -16 -43 -31 -78
-34 -78 -3 0 -38 81 -79 180 l-74 180 -148 0 -149 0 0 -325z"/>
<path d="M29950 3945 l0 -325 125 0 125 0 0 235 0 235 90 0 90 0 0 -235 0
-235 125 0 125 0 0 325 0 325 -340 0 -340 0 0 -325z"/>
<path d="M31560 4180 l0 -90 90 0 90 0 0 -235 0 -235 125 0 125 0 0 235 0 235
90 0 90 0 0 90 0 90 -305 0 -305 0 0 -90z"/>
<path d="M33100 3945 l0 -325 125 0 125 0 0 125 0 125 115 0 115 0 0 -125 0
-125 125 0 125 0 0 325 0 325 -125 0 -125 0 0 -110 0 -110 -115 0 -115 0 0
110 0 110 -125 0 -125 0 0 -325z"/>
<path d="M33980 3945 l0 -325 305 0 305 0 0 -90 0 -90 90 0 90 0 0 179 0 180
-47 3 -48 3 -3 233 -2 232 -125 0 -125 0 0 -235 0 -236 -92 3 -93 3 -3 233 -2
232 -125 0 -125 0 0 -325z"/>
<path d="M34860 3945 l0 -325 118 0 118 0 119 157 120 156 3 -156 3 -157 119
0 120 0 0 325 0 326 -122 -3 -121 -3 -115 -150 c-63 -82 -118 -151 -123 -153
-5 -2 -9 64 -9 152 l0 156 -115 0 -115 0 0 -325z"/>
<path d="M35740 3945 l0 -325 120 0 119 0 118 154 118 154 3 -154 3 -154 119
0 120 0 0 325 0 325 -118 0 -118 0 -119 -157 -120 -156 -3 156 -3 157 -119 0
-120 0 0 -325z"/>
<path d="M33378 2683 c-36 -3 -55 -11 -77 -34 -25 -25 -37 -29 -81 -29 -44 0
-56 4 -82 30 -25 25 -37 30 -79 30 -55 0 -59 -7 -35 -63 27 -65 111 -117 191
-117 76 0 162 44 189 98 11 23 30 96 23 90 -1 -1 -23 -3 -49 -5z"/>
<path d="M22590 2220 l0 -450 129 0 129 0 164 241 163 240 3 -240 2 -241 130
0 130 0 0 450 0 450 -128 0 -127 0 -168 -247 -167 -247 0 247 0 247 -130 0
-130 0 0 -450z"/>
<path d="M23825 2420 c-62 -15 -106 -40 -154 -88 -64 -64 -85 -126 -85 -247 1
-110 20 -159 87 -227 64 -63 133 -88 263 -95 162 -9 252 22 333 113 35 40 70
109 59 119 -4 4 -176 25 -208 25 -17 0 -30 -9 -42 -30 -54 -95 -183 -88 -229
13 -31 70 -19 177 27 228 49 54 159 46 194 -14 l19 -33 116 15 c66 8 115 19
115 25 0 6 -13 34 -29 62 -60 103 -155 145 -329 143 -59 -1 -120 -4 -137 -9z"/>
<path d="M25025 2423 c-156 -8 -185 -24 -240 -133 -37 -73 -58 -100 -81 -100
-11 0 -14 22 -14 115 l0 115 -120 0 -120 0 0 -325 0 -325 120 0 119 0 3 123 3
122 25 -3 c35 -4 47 -19 110 -135 l55 -102 138 -3 c87 -2 137 1 137 7 0 12
-120 210 -158 260 -13 18 -40 39 -58 47 -30 13 -47 34 -26 34 4 0 23 25 41 55
40 67 54 75 120 75 l51 0 0 90 c0 87 -1 90 -22 88 -13 -1 -50 -3 -83 -5z"/>
<path d="M26203 2411 c-153 -53 -219 -158 -211 -339 5 -116 23 -158 97 -224
72 -65 135 -83 292 -83 124 0 127 0 195 35 73 37 132 101 151 164 l10 33 -99
12 c-135 15 -134 15 -157 -23 -45 -73 -136 -84 -197 -25 -78 76 -59 250 32
294 64 30 134 8 170 -55 8 -14 21 -14 122 -1 l113 14 -6 26 c-17 75 -115 161
-205 180 -81 17 -246 13 -307 -8z"/>
<path d="M27057 2420 c-89 -23 -178 -96 -213 -177 -24 -57 -30 -197 -10 -264
43 -149 193 -228 410 -217 139 7 237 58 290 152 49 85 52 82 -81 96 -111 12
-118 12 -128 -6 -57 -101 -169 -109 -232 -15 -27 40 -32 141 -9 195 39 94 183
115 223 32 l15 -32 116 15 c65 8 118 15 120 17 9 6 -50 103 -80 131 -61 59
-118 77 -258 79 -69 2 -142 -1 -163 -6z"/>
<path d="M29286 2414 c-98 -31 -171 -97 -201 -183 -54 -157 -8 -330 110 -411
67 -46 150 -63 275 -57 145 7 201 29 275 109 31 33 55 62 53 63 -2 2 -56 8
-121 14 l-118 11 -33 -25 c-82 -62 -187 -26 -203 69 l-6 36 247 0 246 0 0 58
c0 162 -84 280 -226 317 -74 19 -233 18 -298 -1z m208 -136 c29 -12 71 -90 62
-113 -4 -12 -28 -15 -121 -15 -110 0 -115 1 -115 21 0 34 31 89 59 104 32 17
82 19 115 3z"/>
<path d="M36753 2411 c-145 -50 -213 -151 -213 -315 0 -107 20 -163 81 -230
66 -72 124 -97 250 -103 187 -11 320 40 381 145 l17 29 -120 12 c-115 12 -122
11 -143 -7 -51 -47 -101 -54 -154 -22 -18 11 -40 36 -48 55 -28 68 -41 65 236
65 l250 0 0 28 c0 58 -22 156 -44 201 -39 75 -100 123 -188 147 -77 20 -240
18 -305 -5z m211 -131 c31 -12 55 -47 63 -94 l6 -36 -122 0 c-134 0 -134 0
-107 64 27 65 93 92 160 66z"/>
<path d="M39386 2414 c-107 -34 -175 -100 -206 -203 -36 -114 -19 -234 44
-321 72 -99 173 -136 346 -127 145 7 201 29 275 109 31 33 55 62 53 63 -2 2
-56 8 -121 14 l-118 11 -33 -25 c-82 -62 -187 -26 -203 69 l-6 36 247 0 246 0
0 57 c0 138 -58 241 -166 294 -63 31 -74 33 -188 36 -88 2 -134 -1 -170 -13z
m207 -135 c29 -13 54 -54 59 -94 l3 -30 -117 -3 c-115 -3 -118 -2 -118 19 0
34 31 89 59 104 31 17 81 19 114 4z"/>
<path d="M40605 2423 c-156 -8 -185 -24 -240 -133 -37 -73 -58 -100 -81 -100
-11 0 -14 22 -14 115 l0 115 -125 0 -125 0 0 -325 0 -325 125 0 124 0 3 123 3
122 25 -3 c35 -4 47 -19 110 -135 l55 -102 138 -3 c80 -1 137 1 137 7 0 11
-145 249 -168 275 -10 10 -32 25 -49 33 -30 12 -45 33 -25 33 4 0 22 25 40 55
39 65 55 75 121 75 l51 0 0 90 c0 87 -1 90 -22 88 -13 -1 -50 -3 -83 -5z"/>
<path d="M25188 2403 c28 -55 262 -624 262 -638 0 -9 -16 -33 -35 -52 l-36
-36 -80 6 -80 5 6 -66 c10 -106 3 -99 111 -107 164 -13 257 20 308 108 20 33
187 470 292 760 l13 37 -123 0 -123 0 -59 -205 c-32 -113 -62 -205 -65 -205
-3 0 -34 92 -69 205 l-63 205 -134 0 c-124 0 -133 -1 -125 -17z"/>
<path d="M27630 2330 l0 -90 90 0 90 0 0 -235 0 -235 125 0 125 0 0 235 0 235
90 0 90 0 0 90 0 90 -305 0 -305 0 0 -90z"/>
<path d="M28320 2096 l0 -326 198 0 c296 0 381 18 430 90 27 40 30 125 7 174
-16 33 -78 76 -109 76 -26 0 -18 14 21 35 52 28 76 66 76 117 0 64 -26 106
-81 131 -43 20 -66 22 -294 25 l-248 3 0 -325z m361 163 c40 -40 1 -92 -66
-87 -39 3 -40 4 -43 42 -5 57 2 66 48 66 27 0 47 -7 61 -21z m21 -236 c22 -19
23 -52 4 -78 -11 -15 -27 -19 -72 -20 l-59 0 -3 58 -3 57 57 0 c39 0 63 -5 76
-17z"/>
<path d="M29940 2095 l0 -325 125 0 125 0 0 125 0 125 110 0 110 0 0 -125 0
-125 125 0 125 0 0 325 0 325 -125 0 -125 0 0 -110 0 -110 -110 0 -110 0 0
110 0 110 -125 0 -125 0 0 -325z"/>
<path d="M30830 2095 l0 -325 125 0 125 0 0 125 0 125 110 0 110 0 0 -125 0
-125 125 0 125 0 0 325 0 325 -125 0 -125 0 0 -110 0 -110 -110 0 -110 0 0
110 0 110 -125 0 -125 0 0 -325z"/>
<path d="M31730 2094 l0 -326 233 5 c239 5 280 11 338 50 90 60 104 205 28
291 -41 47 -103 66 -236 73 l-113 6 0 113 0 114 -125 0 -125 0 0 -326z m372
-66 c30 -24 31 -56 4 -83 -20 -20 -35 -25 -76 -25 l-50 0 0 60 0 60 53 0 c29
0 60 -6 69 -12z"/>
<path d="M32450 2095 l0 -325 125 0 125 0 0 325 0 325 -125 0 -125 0 0 -325z"/>
<path d="M32870 2095 l0 -326 117 3 118 3 115 152 c63 83 118 152 123 152 4 1
7 -69 7 -154 l0 -155 115 0 115 0 0 325 0 325 -117 0 -118 0 -114 -150 c-62
-83 -117 -153 -122 -156 -5 -3 -9 62 -9 150 l0 156 -115 0 -115 0 0 -325z"/>
<path d="M34170 2095 l0 -325 118 0 117 1 120 157 120 157 3 -157 3 -158 119
0 120 0 0 325 0 325 -122 0 -123 -1 -115 -154 c-63 -85 -118 -154 -122 -155
-5 0 -8 70 -8 155 l0 155 -115 0 -115 0 0 -325z"/>
<path d="M35050 2095 l0 -325 125 0 124 0 3 123 3 122 110 0 110 0 3 -122 3
-123 124 0 125 0 0 325 0 325 -125 0 -125 0 0 -110 0 -110 -115 0 -115 0 0
110 0 110 -125 0 -125 0 0 -325z"/>
<path d="M35870 2330 l0 -90 90 0 90 0 0 -235 0 -235 125 0 125 0 0 235 0 235
90 0 90 0 0 90 0 90 -305 0 -305 0 0 -90z"/>
<path d="M37460 2208 c0 -255 -3 -264 -73 -261 l-47 3 0 -89 0 -88 38 -7 c20
-3 78 -6 128 -6 78 0 96 3 124 23 67 44 74 71 79 275 l3 182 94 0 94 0 0 -235
0 -235 125 0 125 0 0 325 0 325 -345 0 -345 0 0 -212z"/>
<path d="M38360 2208 c0 -255 -3 -264 -73 -261 l-47 3 0 -89 0 -88 38 -7 c20
-3 78 -6 128 -6 78 0 96 3 124 23 67 44 74 71 79 275 l3 182 94 0 94 0 0 -235
0 -235 125 0 125 0 0 325 0 325 -345 0 -345 0 0 -212z"/>
<path d="M40770 2330 l0 -90 90 0 90 0 0 -235 0 -235 125 0 125 0 0 235 0 235
90 0 90 0 0 90 0 90 -305 0 -305 0 0 -90z"/>
<path d="M21816 2240 l-97 -141 97 -139 97 -140 94 0 c52 0 93 4 91 8 -1 5
-38 68 -81 140 l-79 131 81 135 c45 73 81 137 81 140 0 3 -42 6 -93 6 l-94 0
-97 -140z"/>
<path d="M22188 2318 c-25 -35 -68 -98 -97 -141 l-54 -77 78 -113 c124 -183
105 -168 213 -165 l92 3 -81 134 c-66 110 -79 139 -71 155 5 12 41 74 81 139
39 65 71 120 71 122 0 3 -42 5 -94 5 l-94 0 -44 -62z"/>
<path d="M41482 2358 c60 -95 148 -248 148 -259 0 -8 -36 -74 -80 -147 -44
-73 -80 -134 -80 -135 0 -1 44 -1 97 1 l98 3 90 132 c50 72 92 135 94 140 2 5
-39 72 -90 148 l-94 138 -99 1 -98 0 14 -22z"/>
<path d="M41790 2376 c0 -3 32 -58 71 -123 40 -65 76 -127 81 -139 8 -16 -5
-45 -71 -155 l-81 -134 92 -3 c108 -3 89 -18 213 164 l77 113 -95 138 -94 138
-97 3 c-53 1 -96 1 -96 -2z"/>
<path d="M15835 2217 c-2 -6 -27 -133 -55 -282 -28 -148 -53 -278 -56 -287 -4
-14 0 -15 28 -8 18 5 285 61 592 125 308 64 571 118 584 122 18 4 -132 53
-519 169 -299 90 -550 166 -557 169 -7 2 -15 -1 -17 -8z"/>
</g>
</svg>
