<svg xmlns="http://www.w3.org/2000/svg" fill="none" viewBox="0 0 32 32"><g clip-path="url(#a)"><path fill="#0A66C2" d="M29.64 0H2.36A2.36 2.36 0 0 0 0 2.36v27.28A2.36 2.36 0 0 0 2.36 32h27.28A2.36 2.36 0 0 0 32 29.64V2.36A2.36 2.36 0 0 0 29.64 0ZM9.54 27.26H4.73V11.98h4.8v15.28ZM7.13 9.86a2.76 2.76 0 1 1 2.58-1.7 2.72 2.72 0 0 1-2.58 1.7Zm20.14 17.41h-4.8v-8.35c0-2.46-1.05-3.22-2.4-3.22-1.43 0-2.83 1.08-2.83 3.29v8.28h-4.81V12h4.62v2.12h.07a5.25 5.25 0 0 1 4.57-2.55c2.68 0 5.58 1.6 5.58 6.26v9.45Z"/></g><defs><clipPath id="a"><path fill="#fff" d="M0 0h32v32H0z"/></clipPath></defs></svg>