<svg xmlns="http://www.w3.org/2000/svg" fill="none" width="40" height="22" viewBox="0 0 60 43">
    <g fill="#6395ca">
        <path d="M3.76 15.77H9.8v5.87H3.76v-5.87zm7.41 0h6.04v5.87h-6.04v-5.87zm0-7.53h6.04v5.87h-6.04V8.24zm7.41 7.53h6.04v5.87h-6.04v-5.87zm0-7.53h6.04v5.87h-6.04V8.24zm7.41 7.53h6.04v5.87H26v-5.87zm0-7.53h6.04v5.87H26V8.24zm7.42 7.53h6.04v5.87H33.4v-5.87zM25.98.7h6.04v5.87H26V.71zM12.2 30.12c-.93 0-1.68.73-1.68 1.64 0 .9.76 1.63 1.68 1.63.93 0 1.69-.73 1.69-1.63 0-.9-.76-1.64-1.69-1.64"/>
        <path d="M58.9 18.8a9.5 9.5 0 0 0-7.02-.63c-.29-2.38-1.9-4.46-3.8-5.95l-.76-.6-.64.72c-1.28 1.44-1.66 3.83-1.49 5.67a7.27 7.27 0 0 0 1.42 3.8c-.65.38-1.39.68-2.04.9-1.34.44-2.8.69-4.21.69H.6l-.08.89c-.29 2.97.13 5.94 1.4 8.66l.54 1.07.06.1c3.74 6.18 10.3 8.77 17.45 8.77 13.85 0 25.27-6 30.51-18.7 3.5.17 7.1-.83 8.8-4.09l.45-.83-.84-.46zM12.2 34.87c-1.77 0-3.2-1.4-3.2-3.1a3.15 3.15 0 0 1 3.2-3.11c1.76 0 3.2 1.4 3.2 3.1a3.16 3.16 0 0 1-3.2 3.11z"/>
    </g>
</svg>